<svg xmlns="http://www.w3.org/2000/svg" width="76" height="25" fill="none"><path fill="#fff" d="M11.197 24.24c-2.18 0-4.04-.44-5.58-1.32-1.52-.9-2.68-2.16-3.48-3.78-.78-1.62-1.17-3.51-1.17-5.67 0-2.2.4-4.12 1.2-5.76.82-1.64 1.99-2.91 3.51-3.81 1.52-.92 3.35-1.38 5.49-1.38 1.62 0 3.07.28 4.35.84 1.28.54 2.31 1.35 3.09 2.43.8 1.06 1.3 2.37 1.5 3.93h-4.14c-.26-.98-.79-1.75-1.59-2.31-.78-.58-1.82-.87-3.12-.87-1.44 0-2.59.33-3.45.99-.84.64-1.45 1.48-1.83 2.52-.38 1.02-.57 2.1-.57 3.24 0 1.18.2 2.3.6 3.36.4 1.06 1.03 1.92 1.89 2.58.88.66 2.03.99 3.45.99.84 0 1.59-.12 2.25-.36.66-.26 1.2-.63 1.62-1.11.44-.48.74-1.05.9-1.71h4.29c-.18 1.54-.7 2.85-1.56 3.93-.86 1.08-1.95 1.9-3.27 2.46-1.32.54-2.78.81-4.38.81ZM22.953 24V2.76h4.2V24h-4.2Zm12.539.21c-.72 0-1.42-.09-2.1-.27-.66-.2-1.25-.5-1.77-.9s-.93-.9-1.23-1.5c-.3-.6-.45-1.3-.45-2.1 0-1.08.22-1.94.66-2.58.44-.66 1.03-1.16 1.77-1.5.74-.34 1.59-.57 2.55-.69.98-.12 1.99-.18 3.03-.18h2.28c0-.58-.11-1.09-.33-1.53-.2-.46-.51-.81-.93-1.05-.42-.26-.96-.39-1.62-.39-.42 0-.83.06-1.23.18-.38.1-.7.25-.96.45s-.43.46-.51.78h-4.26c.12-.88.4-1.63.84-2.25.44-.64.99-1.16 1.65-1.56.66-.4 1.38-.69 2.16-.87.8-.2 1.62-.3 2.46-.3 2.3 0 4 .66 5.1 1.98 1.1 1.3 1.65 3.15 1.65 5.55V24h-3.78l-.06-2.04c-.5.7-1.07 1.21-1.71 1.53-.62.32-1.22.52-1.8.6-.58.08-1.05.12-1.41.12Zm.96-3.33c.7 0 1.34-.14 1.92-.42.58-.28 1.04-.66 1.38-1.14.34-.48.51-1.02.51-1.62v-.39h-2.88c-.42 0-.83.02-1.23.06-.38.04-.73.12-1.05.24-.3.1-.54.27-.72.51-.18.24-.27.56-.27.96 0 .4.1.74.3 1.02.22.26.51.46.87.6.36.12.75.18 1.17.18ZM47.533 24V8.19h4.2V24h-4.2Zm2.1-17.4c-.78 0-1.41-.23-1.89-.69-.48-.48-.72-1.09-.72-1.83 0-.78.25-1.41.75-1.89s1.13-.72 1.89-.72c.7 0 1.3.24 1.8.72.52.46.78 1.08.78 1.86 0 .76-.25 1.38-.75 1.86-.48.46-1.1.69-1.86.69ZM55.062 24V8.19h3.78l.27 1.89c.4-.6.85-1.05 1.35-1.35.5-.32 1.02-.53 1.56-.63a7.987 7.987 0 0 1 2.37-.15h.48V12h-.99c-.94 0-1.76.16-2.46.48-.7.32-1.24.82-1.62 1.5-.36.68-.54 1.55-.54 2.61V24h-4.2Z"/><path fill="#FF4B00" d="M71.28 9.75c-.86 0-1.65-.17-2.37-.51-.7-.34-1.26-.84-1.68-1.5-.42-.66-.63-1.47-.63-2.43 0-.98.22-1.81.66-2.49.44-.7 1.02-1.24 1.74-1.62.72-.4 1.5-.6 2.34-.6.84 0 1.61.19 2.31.57.72.38 1.29.92 1.71 1.62.42.68.63 1.51.63 2.49 0 .96-.22 1.77-.66 2.43-.42.66-.99 1.17-1.71 1.53-.7.34-1.48.51-2.34.51Zm.06-2.79c.5 0 .91-.15 1.23-.45.34-.32.51-.75.51-1.29s-.17-.97-.51-1.29c-.32-.32-.73-.48-1.23-.48s-.92.16-1.26.48c-.34.32-.51.75-.51 1.29s.17.97.51 1.29c.34.3.76.45 1.26.45Z"/></svg>