<svg xmlns="http://www.w3.org/2000/svg" width="17.146" height="15" viewBox="0 0 17.146 15">
  <path id="Icon_awesome-home" data-name="Icon awesome-home" d="M8.344,6.145,2.857,11.23v5.488a.509.509,0,0,0,.476.536l3.335-.01a.509.509,0,0,0,.474-.536V13.5a.509.509,0,0,1,.476-.536h1.9A.509.509,0,0,1,10,13.5v3.2a.572.572,0,0,0,.139.38.451.451,0,0,0,.337.158l3.334.01a.509.509,0,0,0,.476-.536V11.226L8.8,6.145A.332.332,0,0,0,8.344,6.145ZM17.013,9.6,14.524,7.293V2.655a.381.381,0,0,0-.357-.4H12.5a.381.381,0,0,0-.357.4V5.087L9.478,2.62a1.308,1.308,0,0,0-1.816,0L.129,9.6a.437.437,0,0,0-.048.566L.84,11.2a.347.347,0,0,0,.242.145.331.331,0,0,0,.262-.09l7-6.488a.332.332,0,0,1,.455,0l7,6.488a.331.331,0,0,0,.5-.054l.759-1.038a.437.437,0,0,0,.079-.3.418.418,0,0,0-.13-.272Z" transform="translate(0.001 -2.254)" fill="#fff"/>
</svg>
